# MagicaVoxel @ Ephtracy

# material
mtllib miniplayer.mtl
usemtl palette

# normals
vn -1 0 0
vn 1 0 0
vn 0 0 1
vn 0 0 -1
vn 0 -1 0
vn 0 1 0

# texcoords
vt 0.00195313 0.5
vt 0.0644531 0.5
vt 0.841797 0.5
vt 0.958984 0.5
vt 0.982422 0.5
vt 0.994141 0.5

# verts
v -10 22 8
v -10 22 7
v -10 22 -2
v -10 24 8
v -10 24 7
v -10 24 -2
v -9 22 -2
v -9 22 -8
v -9 22 -17
v -9 22 -18
v -9 24 -2
v -9 24 -8
v -9 24 -17
v -9 24 -18
v -8 21 3
v -8 21 -0
v -8 22 -0
v -8 23 3
v -8 23 -0
v -8 24 3
v -8 24 -0
v -8 25 3
v -8 25 -0
v -6 22 -10
v -6 22 -17
v -6 22 -18
v -6 24 -10
v -6 24 -17
v -6 24 -18
v -5 22 8
v -5 22 7
v -5 22 3
v -5 24 8
v -5 24 7
v -5 24 3
v -9 22 4
v -9 22 -0
v -9 23 4
v -9 23 -0
v -8 22 8
v -8 22 7
v -8 22 4
v -8 23 4
v -8 23 3
v -8 24 8
v -8 24 7
v -8 24 3
v -7 22 -10
v -7 22 -17
v -7 22 -18
v -7 24 -10
v -7 24 -17
v -7 24 -18
v -5 21 3
v -5 21 -0
v -5 22 3
v -5 22 -0
v -5 24 3
v -5 24 -0
v -5 25 3
v -5 25 -0
v -4 22 -2
v -4 22 -8
v -4 22 -17
v -4 22 -18
v -4 24 -2
v -4 24 -8
v -4 24 -17
v -4 24 -18
v -3 22 8
v -3 22 7
v -3 22 -2
v -3 24 8
v -3 24 7
v -3 24 -2
v -10 22 8
v -10 24 8
v -8 22 8
v -8 24 8
v -5 22 8
v -5 24 8
v -3 22 8
v -3 24 8
v -8 21 3
v -8 23 3
v -8 24 3
v -8 25 3
v -5 21 3
v -5 22 3
v -5 24 3
v -5 25 3
v -9 22 -0
v -9 23 -0
v -8 22 -0
v -8 23 -0
v -9 22 4
v -9 23 4
v -8 22 4
v -8 23 4
v -8 21 -0
v -8 22 -0
v -8 24 -0
v -8 25 -0
v -5 21 -0
v -5 22 -0
v -5 24 -0
v -5 25 -0
v -10 22 -2
v -10 24 -2
v -9 22 -2
v -9 24 -2
v -4 22 -2
v -4 24 -2
v -3 22 -2
v -3 24 -2
v -7 22 -10
v -7 24 -10
v -6 22 -10
v -6 24 -10
v -9 22 -18
v -9 24 -18
v -7 22 -18
v -7 24 -18
v -6 22 -18
v -6 24 -18
v -4 22 -18
v -4 24 -18
v -8 21 3
v -5 21 3
v -8 21 -0
v -5 21 -0
v -10 22 8
v -8 22 8
v -5 22 8
v -3 22 8
v -10 22 7
v -8 22 7
v -5 22 7
v -3 22 7
v -9 22 4
v -8 22 4
v -5 22 3
v -9 22 -0
v -8 22 -0
v -5 22 -0
v -10 22 -2
v -9 22 -2
v -4 22 -2
v -3 22 -2
v -9 22 -8
v -4 22 -8
v -7 22 -10
v -6 22 -10
v -9 22 -17
v -7 22 -17
v -6 22 -17
v -4 22 -17
v -9 22 -18
v -7 22 -18
v -6 22 -18
v -4 22 -18
v -9 23 4
v -8 23 4
v -8 23 3
v -9 23 -0
v -8 23 -0
v -10 24 8
v -8 24 8
v -5 24 8
v -3 24 8
v -10 24 7
v -8 24 7
v -5 24 7
v -3 24 7
v -8 24 3
v -5 24 3
v -8 24 -0
v -5 24 -0
v -10 24 -2
v -9 24 -2
v -4 24 -2
v -3 24 -2
v -9 24 -8
v -4 24 -8
v -7 24 -10
v -6 24 -10
v -9 24 -17
v -7 24 -17
v -6 24 -17
v -4 24 -17
v -9 24 -18
v -7 24 -18
v -6 24 -18
v -4 24 -18
v -8 25 3
v -5 25 3
v -8 25 -0
v -5 25 -0

# faces
f 4/4/1 2/4/1 1/4/1
f 5/3/1 3/3/1 2/3/1
f 5/4/1 2/4/1 4/4/1
f 6/3/1 3/3/1 5/3/1
f 11/3/1 8/3/1 7/3/1
f 12/5/1 9/5/1 8/5/1
f 12/3/1 8/3/1 11/3/1
f 13/6/1 10/6/1 9/6/1
f 13/5/1 9/5/1 12/5/1
f 14/6/1 10/6/1 13/6/1
f 17/1/1 16/1/1 15/1/1
f 18/1/1 17/1/1 15/1/1
f 19/1/1 17/1/1 18/1/1
f 22/1/1 21/1/1 20/1/1
f 23/1/1 21/1/1 22/1/1
f 27/5/1 25/5/1 24/5/1
f 28/6/1 26/6/1 25/6/1
f 28/5/1 25/5/1 27/5/1
f 29/6/1 26/6/1 28/6/1
f 33/4/1 31/4/1 30/4/1
f 34/3/1 32/3/1 31/3/1
f 34/4/1 31/4/1 33/4/1
f 35/3/1 32/3/1 34/3/1
f 36/3/2 37/3/2 38/3/2
f 38/3/2 37/3/2 39/3/2
f 41/3/2 42/3/2 43/3/2
f 40/4/2 41/4/2 45/4/2
f 43/3/2 44/3/2 46/3/2
f 45/4/2 41/4/2 46/4/2
f 41/3/2 43/3/2 46/3/2
f 46/3/2 44/3/2 47/3/2
f 48/5/2 49/5/2 51/5/2
f 49/6/2 50/6/2 52/6/2
f 51/5/2 49/5/2 52/5/2
f 52/6/2 50/6/2 53/6/2
f 54/1/2 55/1/2 56/1/2
f 56/1/2 55/1/2 57/1/2
f 58/1/2 59/1/2 60/1/2
f 60/1/2 59/1/2 61/1/2
f 62/3/2 63/3/2 66/3/2
f 63/5/2 64/5/2 67/5/2
f 66/3/2 63/3/2 67/3/2
f 64/6/2 65/6/2 68/6/2
f 67/5/2 64/5/2 68/5/2
f 68/6/2 65/6/2 69/6/2
f 70/4/2 71/4/2 73/4/2
f 71/3/2 72/3/2 74/3/2
f 73/4/2 71/4/2 74/4/2
f 74/3/2 72/3/2 75/3/2
f 78/4/3 77/4/3 76/4/3
f 79/4/3 77/4/3 78/4/3
f 82/4/3 81/4/3 80/4/3
f 83/4/3 81/4/3 82/4/3
f 88/1/3 85/1/3 84/1/3
f 88/1/3 87/1/3 86/1/3
f 88/1/3 86/1/3 85/1/3
f 89/1/3 87/1/3 88/1/3
f 90/1/3 87/1/3 89/1/3
f 91/1/3 87/1/3 90/1/3
f 94/3/3 93/3/3 92/3/3
f 95/3/3 93/3/3 94/3/3
f 96/3/4 97/3/4 98/3/4
f 98/3/4 97/3/4 99/3/4
f 100/1/4 101/1/4 104/1/4
f 104/1/4 101/1/4 105/1/4
f 102/1/4 103/1/4 106/1/4
f 106/1/4 103/1/4 107/1/4
f 108/3/4 109/3/4 110/3/4
f 110/3/4 109/3/4 111/3/4
f 112/3/4 113/3/4 114/3/4
f 114/3/4 113/3/4 115/3/4
f 116/5/4 117/5/4 118/5/4
f 118/5/4 117/5/4 119/5/4
f 120/6/4 121/6/4 122/6/4
f 122/6/4 121/6/4 123/6/4
f 124/6/4 125/6/4 126/6/4
f 126/6/4 125/6/4 127/6/4
f 130/1/5 129/1/5 128/1/5
f 131/1/5 129/1/5 130/1/5
f 136/4/5 133/4/5 132/4/5
f 137/4/5 133/4/5 136/4/5
f 138/4/5 135/4/5 134/4/5
f 139/4/5 135/4/5 138/4/5
f 140/3/5 137/3/5 136/3/5
f 141/3/5 137/3/5 140/3/5
f 142/3/5 139/3/5 138/3/5
f 143/3/5 140/3/5 136/3/5
f 145/3/5 139/3/5 142/3/5
f 146/3/5 144/3/5 143/3/5
f 146/3/5 145/3/5 144/3/5
f 146/3/5 143/3/5 136/3/5
f 147/3/5 145/3/5 146/3/5
f 148/3/5 139/3/5 145/3/5
f 148/3/5 145/3/5 147/3/5
f 149/3/5 139/3/5 148/3/5
f 150/3/5 148/3/5 147/3/5
f 151/3/5 148/3/5 150/3/5
f 152/5/5 151/5/5 150/5/5
f 153/5/5 151/5/5 152/5/5
f 154/5/5 152/5/5 150/5/5
f 155/5/5 152/5/5 154/5/5
f 156/5/5 151/5/5 153/5/5
f 157/5/5 151/5/5 156/5/5
f 158/6/5 155/6/5 154/6/5
f 159/6/5 155/6/5 158/6/5
f 160/6/5 157/6/5 156/6/5
f 161/6/5 157/6/5 160/6/5
f 164/3/5 163/3/5 162/3/5
f 165/3/5 164/3/5 162/3/5
f 166/3/5 164/3/5 165/3/5
f 167/4/6 168/4/6 171/4/6
f 171/4/6 168/4/6 172/4/6
f 169/4/6 170/4/6 173/4/6
f 173/4/6 170/4/6 174/4/6
f 171/3/6 172/3/6 175/3/6
f 173/3/6 174/3/6 176/3/6
f 171/3/6 175/3/6 177/3/6
f 176/3/6 174/3/6 178/3/6
f 171/3/6 177/3/6 179/3/6
f 177/3/6 178/3/6 179/3/6
f 179/3/6 178/3/6 180/3/6
f 178/3/6 174/3/6 181/3/6
f 180/3/6 178/3/6 181/3/6
f 181/3/6 174/3/6 182/3/6
f 180/3/6 181/3/6 183/3/6
f 183/3/6 181/3/6 184/3/6
f 183/5/6 184/5/6 185/5/6
f 185/5/6 184/5/6 186/5/6
f 183/5/6 185/5/6 187/5/6
f 187/5/6 185/5/6 188/5/6
f 186/5/6 184/5/6 189/5/6
f 189/5/6 184/5/6 190/5/6
f 187/6/6 188/6/6 191/6/6
f 191/6/6 188/6/6 192/6/6
f 189/6/6 190/6/6 193/6/6
f 193/6/6 190/6/6 194/6/6
f 195/1/6 196/1/6 197/1/6
f 197/1/6 196/1/6 198/1/6
