# MagicaVoxel @ Ephtracy

# material
mtllib miniplayeadaada.mtl
usemtl palette

# normals
vn -1 0 0
vn 1 0 0
vn 0 0 1
vn 0 0 -1
vn 0 -1 0
vn 0 1 0

# texcoords
vt 0.00195313 0.5
vt 0.0644531 0.5
vt 0.958984 0.5
vt 0.982422 0.5
vt 0.994141 0.5

# verts
v -10 22 8
v -10 22 7
v -10 22 -2
v -10 24 8
v -10 24 7
v -10 24 -2
v -9 22 -2
v -9 22 -8
v -9 22 -17
v -9 22 -18
v -9 24 -2
v -9 24 -8
v -9 24 -17
v -9 24 -18
v -8 21 3
v -8 21 -0
v -8 22 -0
v -8 23 3
v -8 23 -0
v -8 24 3
v -8 24 -0
v -8 25 3
v -8 25 -0
v -6 22 -10
v -6 22 -17
v -6 22 -18
v -6 24 -10
v -6 24 -17
v -6 24 -18
v -5 22 8
v -5 22 7
v -5 22 3
v -5 24 8
v -5 24 7
v -5 24 3
v -9 22 4
v -9 22 -0
v -9 23 4
v -9 23 -0
v -8 22 8
v -8 22 7
v -8 22 4
v -8 23 4
v -8 23 3
v -8 24 8
v -8 24 7
v -8 24 3
v -7 22 -10
v -7 22 -17
v -7 22 -18
v -7 24 -10
v -7 24 -17
v -7 24 -18
v -5 21 3
v -5 21 -0
v -5 22 3
v -5 22 -0
v -5 24 3
v -5 24 -0
v -5 25 3
v -5 25 -0
v -4 22 -2
v -4 22 -8
v -4 22 -17
v -4 22 -18
v -4 24 -2
v -4 24 -8
v -4 24 -17
v -4 24 -18
v -3 22 8
v -3 22 7
v -3 22 -2
v -3 24 8
v -3 24 7
v -3 24 -2
v -10 22 8
v -10 24 8
v -8 22 8
v -8 24 8
v -5 22 8
v -5 24 8
v -3 22 8
v -3 24 8
v -8 21 3
v -8 23 3
v -8 24 3
v -8 25 3
v -5 21 3
v -5 22 3
v -5 24 3
v -5 25 3
v -9 22 -0
v -9 23 -0
v -8 22 -0
v -8 23 -0
v -9 22 4
v -9 23 4
v -8 22 4
v -8 23 4
v -8 21 -0
v -8 22 -0
v -8 24 -0
v -8 25 -0
v -5 21 -0
v -5 22 -0
v -5 24 -0
v -5 25 -0
v -10 22 -2
v -10 24 -2
v -9 22 -2
v -9 24 -2
v -4 22 -2
v -4 24 -2
v -3 22 -2
v -3 24 -2
v -7 22 -10
v -7 24 -10
v -6 22 -10
v -6 24 -10
v -9 22 -18
v -9 24 -18
v -7 22 -18
v -7 24 -18
v -6 22 -18
v -6 24 -18
v -4 22 -18
v -4 24 -18
v -8 21 3
v -5 21 3
v -8 21 -0
v -5 21 -0
v -10 22 8
v -8 22 8
v -5 22 8
v -3 22 8
v -10 22 7
v -8 22 7
v -5 22 7
v -3 22 7
v -9 22 4
v -8 22 4
v -5 22 3
v -9 22 -0
v -8 22 -0
v -5 22 -0
v -10 22 -2
v -9 22 -2
v -4 22 -2
v -3 22 -2
v -9 22 -8
v -4 22 -8
v -7 22 -10
v -6 22 -10
v -9 22 -17
v -7 22 -17
v -6 22 -17
v -4 22 -17
v -9 22 -18
v -7 22 -18
v -6 22 -18
v -4 22 -18
v -9 23 4
v -8 23 4
v -8 23 3
v -9 23 -0
v -8 23 -0
v -10 24 8
v -8 24 8
v -5 24 8
v -3 24 8
v -10 24 7
v -8 24 7
v -5 24 7
v -3 24 7
v -8 24 3
v -5 24 3
v -8 24 -0
v -5 24 -0
v -10 24 -2
v -9 24 -2
v -4 24 -2
v -3 24 -2
v -9 24 -8
v -4 24 -8
v -7 24 -10
v -6 24 -10
v -9 24 -17
v -7 24 -17
v -6 24 -17
v -4 24 -17
v -9 24 -18
v -7 24 -18
v -6 24 -18
v -4 24 -18
v -8 25 3
v -5 25 3
v -8 25 -0
v -5 25 -0

# faces
f 4/3/1 2/3/1 1/3/1
f 5/2/1 3/2/1 2/2/1
f 5/3/1 2/3/1 4/3/1
f 6/2/1 3/2/1 5/2/1
f 11/2/1 8/2/1 7/2/1
f 12/4/1 9/4/1 8/4/1
f 12/2/1 8/2/1 11/2/1
f 13/5/1 10/5/1 9/5/1
f 13/4/1 9/4/1 12/4/1
f 14/5/1 10/5/1 13/5/1
f 17/1/1 16/1/1 15/1/1
f 18/1/1 17/1/1 15/1/1
f 19/1/1 17/1/1 18/1/1
f 22/1/1 21/1/1 20/1/1
f 23/1/1 21/1/1 22/1/1
f 27/4/1 25/4/1 24/4/1
f 28/5/1 26/5/1 25/5/1
f 28/4/1 25/4/1 27/4/1
f 29/5/1 26/5/1 28/5/1
f 33/3/1 31/3/1 30/3/1
f 34/2/1 32/2/1 31/2/1
f 34/3/1 31/3/1 33/3/1
f 35/2/1 32/2/1 34/2/1
f 36/2/2 37/2/2 38/2/2
f 38/2/2 37/2/2 39/2/2
f 41/2/2 42/2/2 43/2/2
f 40/3/2 41/3/2 45/3/2
f 43/2/2 44/2/2 46/2/2
f 45/3/2 41/3/2 46/3/2
f 41/2/2 43/2/2 46/2/2
f 46/2/2 44/2/2 47/2/2
f 48/4/2 49/4/2 51/4/2
f 49/5/2 50/5/2 52/5/2
f 51/4/2 49/4/2 52/4/2
f 52/5/2 50/5/2 53/5/2
f 54/1/2 55/1/2 56/1/2
f 56/1/2 55/1/2 57/1/2
f 58/1/2 59/1/2 60/1/2
f 60/1/2 59/1/2 61/1/2
f 62/2/2 63/2/2 66/2/2
f 63/4/2 64/4/2 67/4/2
f 66/2/2 63/2/2 67/2/2
f 64/5/2 65/5/2 68/5/2
f 67/4/2 64/4/2 68/4/2
f 68/5/2 65/5/2 69/5/2
f 70/3/2 71/3/2 73/3/2
f 71/2/2 72/2/2 74/2/2
f 73/3/2 71/3/2 74/3/2
f 74/2/2 72/2/2 75/2/2
f 78/3/3 77/3/3 76/3/3
f 79/3/3 77/3/3 78/3/3
f 82/3/3 81/3/3 80/3/3
f 83/3/3 81/3/3 82/3/3
f 88/1/3 85/1/3 84/1/3
f 88/1/3 87/1/3 86/1/3
f 88/1/3 86/1/3 85/1/3
f 89/1/3 87/1/3 88/1/3
f 90/1/3 87/1/3 89/1/3
f 91/1/3 87/1/3 90/1/3
f 94/2/3 93/2/3 92/2/3
f 95/2/3 93/2/3 94/2/3
f 96/2/4 97/2/4 98/2/4
f 98/2/4 97/2/4 99/2/4
f 100/1/4 101/1/4 104/1/4
f 104/1/4 101/1/4 105/1/4
f 102/1/4 103/1/4 106/1/4
f 106/1/4 103/1/4 107/1/4
f 108/2/4 109/2/4 110/2/4
f 110/2/4 109/2/4 111/2/4
f 112/2/4 113/2/4 114/2/4
f 114/2/4 113/2/4 115/2/4
f 116/4/4 117/4/4 118/4/4
f 118/4/4 117/4/4 119/4/4
f 120/5/4 121/5/4 122/5/4
f 122/5/4 121/5/4 123/5/4
f 124/5/4 125/5/4 126/5/4
f 126/5/4 125/5/4 127/5/4
f 130/1/5 129/1/5 128/1/5
f 131/1/5 129/1/5 130/1/5
f 136/3/5 133/3/5 132/3/5
f 137/3/5 133/3/5 136/3/5
f 138/3/5 135/3/5 134/3/5
f 139/3/5 135/3/5 138/3/5
f 140/2/5 137/2/5 136/2/5
f 141/2/5 137/2/5 140/2/5
f 142/2/5 139/2/5 138/2/5
f 143/2/5 140/2/5 136/2/5
f 145/2/5 139/2/5 142/2/5
f 146/2/5 144/2/5 143/2/5
f 146/2/5 145/2/5 144/2/5
f 146/2/5 143/2/5 136/2/5
f 147/2/5 145/2/5 146/2/5
f 148/2/5 139/2/5 145/2/5
f 148/2/5 145/2/5 147/2/5
f 149/2/5 139/2/5 148/2/5
f 150/2/5 148/2/5 147/2/5
f 151/2/5 148/2/5 150/2/5
f 152/4/5 151/4/5 150/4/5
f 153/4/5 151/4/5 152/4/5
f 154/4/5 152/4/5 150/4/5
f 155/4/5 152/4/5 154/4/5
f 156/4/5 151/4/5 153/4/5
f 157/4/5 151/4/5 156/4/5
f 158/5/5 155/5/5 154/5/5
f 159/5/5 155/5/5 158/5/5
f 160/5/5 157/5/5 156/5/5
f 161/5/5 157/5/5 160/5/5
f 164/2/5 163/2/5 162/2/5
f 165/2/5 164/2/5 162/2/5
f 166/2/5 164/2/5 165/2/5
f 167/3/6 168/3/6 171/3/6
f 171/3/6 168/3/6 172/3/6
f 169/3/6 170/3/6 173/3/6
f 173/3/6 170/3/6 174/3/6
f 171/2/6 172/2/6 175/2/6
f 173/2/6 174/2/6 176/2/6
f 171/2/6 175/2/6 177/2/6
f 176/2/6 174/2/6 178/2/6
f 171/2/6 177/2/6 179/2/6
f 177/2/6 178/2/6 179/2/6
f 179/2/6 178/2/6 180/2/6
f 178/2/6 174/2/6 181/2/6
f 180/2/6 178/2/6 181/2/6
f 181/2/6 174/2/6 182/2/6
f 180/2/6 181/2/6 183/2/6
f 183/2/6 181/2/6 184/2/6
f 183/4/6 184/4/6 185/4/6
f 185/4/6 184/4/6 186/4/6
f 183/4/6 185/4/6 187/4/6
f 187/4/6 185/4/6 188/4/6
f 186/4/6 184/4/6 189/4/6
f 189/4/6 184/4/6 190/4/6
f 187/5/6 188/5/6 191/5/6
f 191/5/6 188/5/6 192/5/6
f 189/5/6 190/5/6 193/5/6
f 193/5/6 190/5/6 194/5/6
f 195/1/6 196/1/6 197/1/6
f 197/1/6 196/1/6 198/1/6
