# MagicaVoxel @ Ephtracy

# group
g jumper

# material
mtllib jumper.mtl
usemtl palette

# normals
vn -1 0 0
vn 1 0 0
vn 0 0 1
vn 0 0 -1
vn 0 -1 0
vn 0 1 0

# texcoords
vt 0.00195313 0.5
vt 0.810547 0.5
vt 0.958984 0.5
vt 0.986328 0.5
vt 0.994141 0.5

# verts
v -10 22 8
v -10 22 7
v -10 22 -2
v -10 24 8
v -10 24 7
v -10 24 -2
v -9 22 -2
v -9 22 -8
v -9 22 -17
v -9 22 -18
v -9 24 -2
v -9 24 -8
v -9 24 -17
v -9 24 -18
v -8 21 3
v -8 21 -0
v -8 22 -0
v -8 23 3
v -8 23 -0
v -8 24 3
v -8 24 -0
v -8 25 3
v -8 25 -0
v -6 22 -10
v -6 22 -17
v -6 22 -18
v -6 24 -10
v -6 24 -17
v -6 24 -18
v -5 22 8
v -5 22 7
v -5 22 3
v -5 24 8
v -5 24 7
v -5 24 3
v -9 22 4
v -9 22 -0
v -9 23 4
v -9 23 -0
v -8 22 8
v -8 22 7
v -8 22 4
v -8 23 4
v -8 23 3
v -8 24 8
v -8 24 7
v -8 24 3
v -7 22 -10
v -7 22 -17
v -7 22 -18
v -7 24 -10
v -7 24 -17
v -7 24 -18
v -5 21 3
v -5 21 -0
v -5 22 3
v -5 22 -0
v -5 24 3
v -5 24 -0
v -5 25 3
v -5 25 -0
v -4 22 -2
v -4 22 -8
v -4 22 -17
v -4 22 -18
v -4 24 -2
v -4 24 -8
v -4 24 -17
v -4 24 -18
v -3 22 8
v -3 22 7
v -3 22 -2
v -3 24 8
v -3 24 7
v -3 24 -2
v -10 22 8
v -10 24 8
v -8 22 8
v -8 24 8
v -5 22 8
v -5 24 8
v -3 22 8
v -3 24 8
v -8 21 3
v -8 23 3
v -8 24 3
v -8 25 3
v -5 21 3
v -5 22 3
v -5 24 3
v -5 25 3
v -9 22 -0
v -9 23 -0
v -8 22 -0
v -8 23 -0
v -9 22 4
v -9 23 4
v -8 22 4
v -8 23 4
v -8 21 -0
v -8 22 -0
v -8 24 -0
v -8 25 -0
v -5 21 -0
v -5 22 -0
v -5 24 -0
v -5 25 -0
v -10 22 -2
v -10 24 -2
v -9 22 -2
v -9 24 -2
v -4 22 -2
v -4 24 -2
v -3 22 -2
v -3 24 -2
v -7 22 -10
v -7 24 -10
v -6 22 -10
v -6 24 -10
v -9 22 -18
v -9 24 -18
v -7 22 -18
v -7 24 -18
v -6 22 -18
v -6 24 -18
v -4 22 -18
v -4 24 -18
v -8 21 3
v -5 21 3
v -8 21 -0
v -5 21 -0
v -10 22 8
v -8 22 8
v -5 22 8
v -3 22 8
v -10 22 7
v -8 22 7
v -5 22 7
v -3 22 7
v -9 22 4
v -8 22 4
v -5 22 3
v -9 22 -0
v -8 22 -0
v -5 22 -0
v -10 22 -2
v -9 22 -2
v -4 22 -2
v -3 22 -2
v -9 22 -8
v -4 22 -8
v -7 22 -10
v -6 22 -10
v -9 22 -17
v -7 22 -17
v -6 22 -17
v -4 22 -17
v -9 22 -18
v -7 22 -18
v -6 22 -18
v -4 22 -18
v -9 23 4
v -8 23 4
v -8 23 3
v -9 23 -0
v -8 23 -0
v -10 24 8
v -8 24 8
v -5 24 8
v -3 24 8
v -10 24 7
v -8 24 7
v -5 24 7
v -3 24 7
v -8 24 3
v -5 24 3
v -8 24 -0
v -5 24 -0
v -10 24 -2
v -9 24 -2
v -4 24 -2
v -3 24 -2
v -9 24 -8
v -4 24 -8
v -7 24 -10
v -6 24 -10
v -9 24 -17
v -7 24 -17
v -6 24 -17
v -4 24 -17
v -9 24 -18
v -7 24 -18
v -6 24 -18
v -4 24 -18
v -8 25 3
v -5 25 3
v -8 25 -0
v -5 25 -0

# faces
f 4/3/1 2/3/1 1/3/1
f 5/4/1 3/4/1 2/4/1
f 5/3/1 2/3/1 4/3/1
f 6/4/1 3/4/1 5/4/1
f 11/4/1 8/4/1 7/4/1
f 12/2/1 9/2/1 8/2/1
f 12/4/1 8/4/1 11/4/1
f 13/5/1 10/5/1 9/5/1
f 13/2/1 9/2/1 12/2/1
f 14/5/1 10/5/1 13/5/1
f 17/1/1 16/1/1 15/1/1
f 18/1/1 17/1/1 15/1/1
f 19/1/1 17/1/1 18/1/1
f 22/1/1 21/1/1 20/1/1
f 23/1/1 21/1/1 22/1/1
f 27/2/1 25/2/1 24/2/1
f 28/5/1 26/5/1 25/5/1
f 28/2/1 25/2/1 27/2/1
f 29/5/1 26/5/1 28/5/1
f 33/3/1 31/3/1 30/3/1
f 34/4/1 32/4/1 31/4/1
f 34/3/1 31/3/1 33/3/1
f 35/4/1 32/4/1 34/4/1
f 36/4/2 37/4/2 38/4/2
f 38/4/2 37/4/2 39/4/2
f 41/4/2 42/4/2 43/4/2
f 40/3/2 41/3/2 45/3/2
f 43/4/2 44/4/2 46/4/2
f 45/3/2 41/3/2 46/3/2
f 41/4/2 43/4/2 46/4/2
f 46/4/2 44/4/2 47/4/2
f 48/2/2 49/2/2 51/2/2
f 49/5/2 50/5/2 52/5/2
f 51/2/2 49/2/2 52/2/2
f 52/5/2 50/5/2 53/5/2
f 54/1/2 55/1/2 56/1/2
f 56/1/2 55/1/2 57/1/2
f 58/1/2 59/1/2 60/1/2
f 60/1/2 59/1/2 61/1/2
f 62/4/2 63/4/2 66/4/2
f 63/2/2 64/2/2 67/2/2
f 66/4/2 63/4/2 67/4/2
f 64/5/2 65/5/2 68/5/2
f 67/2/2 64/2/2 68/2/2
f 68/5/2 65/5/2 69/5/2
f 70/3/2 71/3/2 73/3/2
f 71/4/2 72/4/2 74/4/2
f 73/3/2 71/3/2 74/3/2
f 74/4/2 72/4/2 75/4/2
f 78/3/3 77/3/3 76/3/3
f 79/3/3 77/3/3 78/3/3
f 82/3/3 81/3/3 80/3/3
f 83/3/3 81/3/3 82/3/3
f 88/1/3 85/1/3 84/1/3
f 88/1/3 87/1/3 86/1/3
f 88/1/3 86/1/3 85/1/3
f 89/1/3 87/1/3 88/1/3
f 90/1/3 87/1/3 89/1/3
f 91/1/3 87/1/3 90/1/3
f 94/4/3 93/4/3 92/4/3
f 95/4/3 93/4/3 94/4/3
f 96/4/4 97/4/4 98/4/4
f 98/4/4 97/4/4 99/4/4
f 100/1/4 101/1/4 104/1/4
f 104/1/4 101/1/4 105/1/4
f 102/1/4 103/1/4 106/1/4
f 106/1/4 103/1/4 107/1/4
f 108/4/4 109/4/4 110/4/4
f 110/4/4 109/4/4 111/4/4
f 112/4/4 113/4/4 114/4/4
f 114/4/4 113/4/4 115/4/4
f 116/2/4 117/2/4 118/2/4
f 118/2/4 117/2/4 119/2/4
f 120/5/4 121/5/4 122/5/4
f 122/5/4 121/5/4 123/5/4
f 124/5/4 125/5/4 126/5/4
f 126/5/4 125/5/4 127/5/4
f 130/1/5 129/1/5 128/1/5
f 131/1/5 129/1/5 130/1/5
f 136/3/5 133/3/5 132/3/5
f 137/3/5 133/3/5 136/3/5
f 138/3/5 135/3/5 134/3/5
f 139/3/5 135/3/5 138/3/5
f 140/4/5 137/4/5 136/4/5
f 141/4/5 137/4/5 140/4/5
f 142/4/5 139/4/5 138/4/5
f 143/4/5 140/4/5 136/4/5
f 145/4/5 139/4/5 142/4/5
f 146/4/5 144/4/5 143/4/5
f 146/4/5 145/4/5 144/4/5
f 146/4/5 143/4/5 136/4/5
f 147/4/5 145/4/5 146/4/5
f 148/4/5 139/4/5 145/4/5
f 148/4/5 145/4/5 147/4/5
f 149/4/5 139/4/5 148/4/5
f 150/4/5 148/4/5 147/4/5
f 151/4/5 148/4/5 150/4/5
f 152/2/5 151/2/5 150/2/5
f 153/2/5 151/2/5 152/2/5
f 154/2/5 152/2/5 150/2/5
f 155/2/5 152/2/5 154/2/5
f 156/2/5 151/2/5 153/2/5
f 157/2/5 151/2/5 156/2/5
f 158/5/5 155/5/5 154/5/5
f 159/5/5 155/5/5 158/5/5
f 160/5/5 157/5/5 156/5/5
f 161/5/5 157/5/5 160/5/5
f 164/4/5 163/4/5 162/4/5
f 165/4/5 164/4/5 162/4/5
f 166/4/5 164/4/5 165/4/5
f 167/3/6 168/3/6 171/3/6
f 171/3/6 168/3/6 172/3/6
f 169/3/6 170/3/6 173/3/6
f 173/3/6 170/3/6 174/3/6
f 171/4/6 172/4/6 175/4/6
f 173/4/6 174/4/6 176/4/6
f 171/4/6 175/4/6 177/4/6
f 176/4/6 174/4/6 178/4/6
f 171/4/6 177/4/6 179/4/6
f 177/4/6 178/4/6 179/4/6
f 179/4/6 178/4/6 180/4/6
f 178/4/6 174/4/6 181/4/6
f 180/4/6 178/4/6 181/4/6
f 181/4/6 174/4/6 182/4/6
f 180/4/6 181/4/6 183/4/6
f 183/4/6 181/4/6 184/4/6
f 183/2/6 184/2/6 185/2/6
f 185/2/6 184/2/6 186/2/6
f 183/2/6 185/2/6 187/2/6
f 187/2/6 185/2/6 188/2/6
f 186/2/6 184/2/6 189/2/6
f 189/2/6 184/2/6 190/2/6
f 187/5/6 188/5/6 191/5/6
f 191/5/6 188/5/6 192/5/6
f 189/5/6 190/5/6 193/5/6
f 193/5/6 190/5/6 194/5/6
f 195/1/6 196/1/6 197/1/6
f 197/1/6 196/1/6 198/1/6
